<svg xmlns="http://www.w3.org/2000/svg" width="390" height="844" viewBox="0 0 390 844">
<defs>
  <linearGradient id="wood" x1="0" y1="0" x2="0" y2="1"><stop offset="0" stop-color="#D58936"/><stop offset="1" stop-color="#8A471B"/></linearGradient>
  <linearGradient id="panel" x1="0" y1="0" x2="0" y2="1"><stop offset="0" stop-color="#FFF9EC"/><stop offset="1" stop-color="#F6E5C7"/></linearGradient>
  <linearGradient id="chrome" x1="0" y1="0" x2="0" y2="1"><stop offset="0" stop-color="#365678"/><stop offset="1" stop-color="#11263F"/></linearGradient>
  <linearGradient id="primary" x1="0" y1="0" x2="0" y2="1"><stop offset="0" stop-color="#2C82D8"/><stop offset="1" stop-color="#0D4E91"/></linearGradient>
  <filter id="shadow" x="-20%" y="-20%" width="140%" height="140%"><feDropShadow dx="0" dy="2" stdDeviation="2" flood-opacity="0.25"/></filter>
</defs>
<rect width="390" height="844" fill="#20160F"/>
<rect x="6" y="6" width="378" height="832" rx="30" fill="url(#wood)" stroke="#2A1A11" stroke-width="4"/>
<text x="195" y="18" text-anchor="middle" font-family="Arial" font-size="9" fill="#FFF9EC">actual runtime background: toy_room_bg_v6.png</text>
<rect x="12" y="24" width="366" height="48" rx="16" fill="url(#chrome)" stroke="#72B7EA" stroke-opacity=".62"/><text x="34" y="54" font-family="Arial" font-size="20" fill="white">←</text><text x="115" y="53" text-anchor="middle" font-family="Arial" font-size="14" font-weight="700" fill="white">E 5/5 +</text><text x="232" y="53" text-anchor="middle" font-family="Arial" font-size="14" font-weight="700" fill="white">C 10000 +</text><text x="323" y="53" text-anchor="middle" font-family="Arial" font-size="18" fill="white">SET</text><rect x="12" y="82" width="366" height="60" rx="16" fill="url(#panel)" stroke="#D8B879" filter="url(#shadow)"/><text x="66.9" y="106" text-anchor="middle" font-family="Arial" font-size="12" font-weight="700" fill="#3B2918">Гонка</text><text x="66.9" y="125" text-anchor="middle" font-family="Arial" font-size="11" fill="#725A3C">Угадайте код</text><line x1="121.8" y1="92" x2="121.8" y2="132" stroke="#D8B879" stroke-opacity=".55"/><text x="163.89" y="106" text-anchor="middle" font-family="Arial" font-size="12" font-weight="700" fill="#3B2918">Ходы</text><text x="163.89" y="125" text-anchor="middle" font-family="Arial" font-size="11" fill="#725A3C">0/20</text><line x1="205.98000000000002" y1="92" x2="205.98000000000002" y2="132" stroke="#D8B879" stroke-opacity=".55"/><text x="251.73000000000002" y="106" text-anchor="middle" font-family="Arial" font-size="12" font-weight="700" fill="#3B2918">Общее</text><text x="251.73000000000002" y="125" text-anchor="middle" font-family="Arial" font-size="11" fill="#725A3C">05:59</text><line x1="297.48" y1="92" x2="297.48" y2="132" stroke="#D8B879" stroke-opacity=".55"/><text x="337.74" y="106" text-anchor="middle" font-family="Arial" font-size="12" font-weight="700" fill="#3B2918">Ход</text><text x="337.74" y="125" text-anchor="middle" font-family="Arial" font-size="11" fill="#725A3C">00:01</text><rect x="12" y="150" width="115.84" height="386" rx="16" fill="url(#panel)" stroke="#D8B879" filter="url(#shadow)"/><rect x="131.84" y="150" width="246.16" height="386" rx="16" fill="url(#panel)" stroke="#D8B879" filter="url(#shadow)"/><text x="22" y="175" font-family="Arial" font-size="14" font-weight="700" fill="#3B2918">Попытки</text><text x="141.84" y="175" font-family="Arial" font-size="14" font-weight="700" fill="#3B2918">Кодовая матрица</text><rect x="20" y="193" width="99.84" height="28" rx="7" fill="#FFF9EC" fill-opacity=".35" stroke="#D8B879" stroke-opacity=".7"/><text x="26" y="212" font-family="monospace" font-size="10.5" fill="#3B2918">12345678</text><text x="89.84" y="212" text-anchor="middle" font-family="Arial" font-size="12" fill="#725A3C">→</text><text x="111.84" y="212" text-anchor="middle" font-family="monospace" font-size="12" font-weight="700" fill="#3B2918">2</text><rect x="20" y="225" width="99.84" height="28" rx="7" fill="#FFF9EC" fill-opacity=".35" stroke="#D8B879" stroke-opacity=".7"/><text x="26" y="244" font-family="monospace" font-size="10.5" fill="#3B2918">90617342</text><text x="89.84" y="244" text-anchor="middle" font-family="Arial" font-size="12" fill="#725A3C">→</text><text x="111.84" y="244" text-anchor="middle" font-family="monospace" font-size="12" font-weight="700" fill="#3B2918">1</text><rect x="20" y="257" width="99.84" height="28" rx="7" fill="#FFF9EC" fill-opacity=".35" stroke="#D8B879" stroke-opacity=".7"/><text x="26" y="276" font-family="monospace" font-size="10.5" fill="#3B2918">45820731</text><text x="89.84" y="276" text-anchor="middle" font-family="Arial" font-size="12" fill="#725A3C">→</text><text x="111.84" y="276" text-anchor="middle" font-family="monospace" font-size="12" font-weight="700" fill="#3B2918">0</text><rect x="20" y="289" width="99.84" height="28" rx="7" fill="#1769B5" fill-opacity=".10" stroke="#1769B5" stroke-opacity=".7"/><text x="26" y="308" font-family="monospace" font-size="10.5" fill="#3B2918">28641370</text><text x="89.84" y="308" text-anchor="middle" font-family="Arial" font-size="12" fill="#725A3C">→</text><text x="111.84" y="308" text-anchor="middle" font-family="monospace" font-size="12" font-weight="700" fill="#3B2918">3</text><rect x="141.84" y="216.40" width="26.52" height="26.52" rx="5.00" fill="#FFF9EC" fill-opacity="0.45" stroke="#D8B879" stroke-width="1"/><text x="155.10" y="234.17" text-anchor="middle" font-family="Arial" font-size="11.0" font-weight="600" fill="#3B2918">0</text><rect x="170.36" y="216.40" width="26.52" height="26.52" rx="5.00" fill="#E6B83E" fill-opacity="0.26" stroke="#E6B83E" stroke-width="1"/><text x="183.62" y="234.17" text-anchor="middle" font-family="Arial" font-size="11.0" font-weight="600" fill="#3B2918">0</text><rect x="198.88" y="216.40" width="26.52" height="26.52" rx="5.00" fill="#4C9A45" fill-opacity="0.7" stroke="#4C9A45" stroke-width="2"/><text x="212.14" y="234.17" text-anchor="middle" font-family="Arial" font-size="11.0" font-weight="600" fill="white">0</text><rect x="227.40" y="216.40" width="26.52" height="26.52" rx="5.00" fill="#FFF9EC" fill-opacity="0.45" stroke="#D8B879" stroke-width="1"/><text x="240.66" y="234.17" text-anchor="middle" font-family="Arial" font-size="11.0" font-weight="600" fill="#3B2918">0</text><rect x="255.92" y="216.40" width="26.52" height="26.52" rx="5.00" fill="#E97872" fill-opacity="0.18" stroke="#E97872" stroke-width="1"/><text x="269.18" y="234.17" text-anchor="middle" font-family="Arial" font-size="11.0" font-weight="600" fill="#3B2918">0</text><rect x="284.44" y="216.40" width="26.52" height="26.52" rx="5.00" fill="#79B95D" fill-opacity="0.3" stroke="#79B95D" stroke-width="2"/><text x="297.70" y="234.17" text-anchor="middle" font-family="Arial" font-size="11.0" font-weight="600" fill="#3B2918">0</text><rect x="312.96" y="216.40" width="26.52" height="26.52" rx="5.00" fill="#FFF9EC" fill-opacity="0.45" stroke="#D8B879" stroke-width="1"/><text x="326.22" y="234.17" text-anchor="middle" font-family="Arial" font-size="11.0" font-weight="600" fill="#3B2918">0</text><rect x="341.48" y="216.40" width="26.52" height="26.52" rx="5.00" fill="#FFF9EC" fill-opacity="0.45" stroke="#D8B879" stroke-width="1"/><text x="354.74" y="234.17" text-anchor="middle" font-family="Arial" font-size="11.0" font-weight="600" fill="#3B2918">0</text><rect x="141.84" y="244.92" width="26.52" height="26.52" rx="5.00" fill="#E97872" fill-opacity="0.18" stroke="#E97872" stroke-width="1"/><text x="155.10" y="262.69" text-anchor="middle" font-family="Arial" font-size="11.0" font-weight="600" fill="#3B2918">1</text><rect x="170.36" y="244.92" width="26.52" height="26.52" rx="5.00" fill="#79B95D" fill-opacity="0.3" stroke="#79B95D" stroke-width="2"/><text x="183.62" y="262.69" text-anchor="middle" font-family="Arial" font-size="11.0" font-weight="600" fill="#3B2918">1</text><rect x="198.88" y="244.92" width="26.52" height="26.52" rx="5.00" fill="#FFF9EC" fill-opacity="0.45" stroke="#D8B879" stroke-width="1"/><text x="212.14" y="262.69" text-anchor="middle" font-family="Arial" font-size="11.0" font-weight="600" fill="#3B2918">1</text><rect x="227.40" y="244.92" width="26.52" height="26.52" rx="5.00" fill="#FFF9EC" fill-opacity="0.45" stroke="#D8B879" stroke-width="1"/><text x="240.66" y="262.69" text-anchor="middle" font-family="Arial" font-size="11.0" font-weight="600" fill="#3B2918">1</text><rect x="255.92" y="244.92" width="26.52" height="26.52" rx="5.00" fill="#E6B83E" fill-opacity="0.26" stroke="#E6B83E" stroke-width="1"/><text x="269.18" y="262.69" text-anchor="middle" font-family="Arial" font-size="11.0" font-weight="600" fill="#3B2918">1</text><rect x="284.44" y="244.92" width="26.52" height="26.52" rx="5.00" fill="#FFF9EC" fill-opacity="0.45" stroke="#D8B879" stroke-width="1"/><text x="297.70" y="262.69" text-anchor="middle" font-family="Arial" font-size="11.0" font-weight="600" fill="#3B2918">1</text><rect x="312.96" y="244.92" width="26.52" height="26.52" rx="5.00" fill="#FFF9EC" fill-opacity="0.45" stroke="#D8B879" stroke-width="1"/><text x="326.22" y="262.69" text-anchor="middle" font-family="Arial" font-size="11.0" font-weight="600" fill="#3B2918">1</text><rect x="341.48" y="244.92" width="26.52" height="26.52" rx="5.00" fill="#E97872" fill-opacity="0.18" stroke="#E97872" stroke-width="1"/><text x="354.74" y="262.69" text-anchor="middle" font-family="Arial" font-size="11.0" font-weight="600" fill="#3B2918">1</text><rect x="141.84" y="273.44" width="26.52" height="26.52" rx="5.00" fill="#E6B83E" fill-opacity="0.26" stroke="#E6B83E" stroke-width="1"/><text x="155.10" y="291.21" text-anchor="middle" font-family="Arial" font-size="11.0" font-weight="600" fill="#3B2918">2</text><rect x="170.36" y="273.44" width="26.52" height="26.52" rx="5.00" fill="#4C9A45" fill-opacity="0.7" stroke="#4C9A45" stroke-width="2"/><text x="183.62" y="291.21" text-anchor="middle" font-family="Arial" font-size="11.0" font-weight="600" fill="white">2</text><rect x="198.88" y="273.44" width="26.52" height="26.52" rx="5.00" fill="#FFF9EC" fill-opacity="0.45" stroke="#D8B879" stroke-width="1"/><text x="212.14" y="291.21" text-anchor="middle" font-family="Arial" font-size="11.0" font-weight="600" fill="#3B2918">2</text><rect x="227.40" y="273.44" width="26.52" height="26.52" rx="5.00" fill="#E97872" fill-opacity="0.18" stroke="#E97872" stroke-width="1"/><text x="240.66" y="291.21" text-anchor="middle" font-family="Arial" font-size="11.0" font-weight="600" fill="#3B2918">2</text><rect x="255.92" y="273.44" width="26.52" height="26.52" rx="5.00" fill="#79B95D" fill-opacity="0.3" stroke="#79B95D" stroke-width="2"/><text x="269.18" y="291.21" text-anchor="middle" font-family="Arial" font-size="11.0" font-weight="600" fill="#3B2918">2</text><rect x="284.44" y="273.44" width="26.52" height="26.52" rx="5.00" fill="#FFF9EC" fill-opacity="0.45" stroke="#D8B879" stroke-width="1"/><text x="297.70" y="291.21" text-anchor="middle" font-family="Arial" font-size="11.0" font-weight="600" fill="#3B2918">2</text><rect x="312.96" y="273.44" width="26.52" height="26.52" rx="5.00" fill="#FFF9EC" fill-opacity="0.45" stroke="#D8B879" stroke-width="1"/><text x="326.22" y="291.21" text-anchor="middle" font-family="Arial" font-size="11.0" font-weight="600" fill="#3B2918">2</text><rect x="341.48" y="273.44" width="26.52" height="26.52" rx="5.00" fill="#E6B83E" fill-opacity="0.26" stroke="#E6B83E" stroke-width="1"/><text x="354.74" y="291.21" text-anchor="middle" font-family="Arial" font-size="11.0" font-weight="600" fill="#3B2918">2</text><rect x="141.84" y="301.96" width="26.52" height="26.52" rx="5.00" fill="#79B95D" fill-opacity="0.3" stroke="#79B95D" stroke-width="2"/><text x="155.10" y="319.73" text-anchor="middle" font-family="Arial" font-size="11.0" font-weight="600" fill="#3B2918">3</text><rect x="170.36" y="301.96" width="26.52" height="26.52" rx="5.00" fill="#FFF9EC" fill-opacity="0.45" stroke="#D8B879" stroke-width="1"/><text x="183.62" y="319.73" text-anchor="middle" font-family="Arial" font-size="11.0" font-weight="600" fill="#3B2918">3</text><rect x="198.88" y="301.96" width="26.52" height="26.52" rx="5.00" fill="#FFF9EC" fill-opacity="0.45" stroke="#D8B879" stroke-width="1"/><text x="212.14" y="319.73" text-anchor="middle" font-family="Arial" font-size="11.0" font-weight="600" fill="#3B2918">3</text><rect x="227.40" y="301.96" width="26.52" height="26.52" rx="5.00" fill="#E6B83E" fill-opacity="0.26" stroke="#E6B83E" stroke-width="1"/><text x="240.66" y="319.73" text-anchor="middle" font-family="Arial" font-size="11.0" font-weight="600" fill="#3B2918">3</text><rect x="255.92" y="301.96" width="26.52" height="26.52" rx="5.00" fill="#FFF9EC" fill-opacity="0.45" stroke="#D8B879" stroke-width="1"/><text x="269.18" y="319.73" text-anchor="middle" font-family="Arial" font-size="11.0" font-weight="600" fill="#3B2918">3</text><rect x="284.44" y="301.96" width="26.52" height="26.52" rx="5.00" fill="#FFF9EC" fill-opacity="0.45" stroke="#D8B879" stroke-width="1"/><text x="297.70" y="319.73" text-anchor="middle" font-family="Arial" font-size="11.0" font-weight="600" fill="#3B2918">3</text><rect x="312.96" y="301.96" width="26.52" height="26.52" rx="5.00" fill="#E97872" fill-opacity="0.18" stroke="#E97872" stroke-width="1"/><text x="326.22" y="319.73" text-anchor="middle" font-family="Arial" font-size="11.0" font-weight="600" fill="#3B2918">3</text><rect x="341.48" y="301.96" width="26.52" height="26.52" rx="5.00" fill="#79B95D" fill-opacity="0.3" stroke="#79B95D" stroke-width="2"/><text x="354.74" y="319.73" text-anchor="middle" font-family="Arial" font-size="11.0" font-weight="600" fill="#3B2918">3</text><rect x="141.84" y="330.48" width="26.52" height="26.52" rx="5.00" fill="#4C9A45" fill-opacity="0.7" stroke="#4C9A45" stroke-width="2"/><text x="155.10" y="348.25" text-anchor="middle" font-family="Arial" font-size="11.0" font-weight="600" fill="white">4</text><rect x="170.36" y="330.48" width="26.52" height="26.52" rx="5.00" fill="#FFF9EC" fill-opacity="0.45" stroke="#D8B879" stroke-width="1"/><text x="183.62" y="348.25" text-anchor="middle" font-family="Arial" font-size="11.0" font-weight="600" fill="#3B2918">4</text><rect x="198.88" y="330.48" width="26.52" height="26.52" rx="5.00" fill="#E97872" fill-opacity="0.18" stroke="#E97872" stroke-width="1"/><text x="212.14" y="348.25" text-anchor="middle" font-family="Arial" font-size="11.0" font-weight="600" fill="#3B2918">4</text><rect x="227.40" y="330.48" width="26.52" height="26.52" rx="5.00" fill="#79B95D" fill-opacity="0.3" stroke="#79B95D" stroke-width="2"/><text x="240.66" y="348.25" text-anchor="middle" font-family="Arial" font-size="11.0" font-weight="600" fill="#3B2918">4</text><rect x="255.92" y="330.48" width="26.52" height="26.52" rx="5.00" fill="#FFF9EC" fill-opacity="0.45" stroke="#D8B879" stroke-width="1"/><text x="269.18" y="348.25" text-anchor="middle" font-family="Arial" font-size="11.0" font-weight="600" fill="#3B2918">4</text><rect x="284.44" y="330.48" width="26.52" height="26.52" rx="5.00" fill="#FFF9EC" fill-opacity="0.45" stroke="#D8B879" stroke-width="1"/><text x="297.70" y="348.25" text-anchor="middle" font-family="Arial" font-size="11.0" font-weight="600" fill="#3B2918">4</text><rect x="312.96" y="330.48" width="26.52" height="26.52" rx="5.00" fill="#E6B83E" fill-opacity="0.26" stroke="#E6B83E" stroke-width="1"/><text x="326.22" y="348.25" text-anchor="middle" font-family="Arial" font-size="11.0" font-weight="600" fill="#3B2918">4</text><rect x="341.48" y="330.48" width="26.52" height="26.52" rx="5.00" fill="#4C9A45" fill-opacity="0.7" stroke="#4C9A45" stroke-width="2"/><text x="354.74" y="348.25" text-anchor="middle" font-family="Arial" font-size="11.0" font-weight="600" fill="white">4</text><rect x="141.84" y="359.00" width="26.52" height="26.52" rx="5.00" fill="#FFF9EC" fill-opacity="0.45" stroke="#D8B879" stroke-width="1"/><text x="155.10" y="376.77" text-anchor="middle" font-family="Arial" font-size="11.0" font-weight="600" fill="#3B2918">5</text><rect x="170.36" y="359.00" width="26.52" height="26.52" rx="5.00" fill="#FFF9EC" fill-opacity="0.45" stroke="#D8B879" stroke-width="1"/><text x="183.62" y="376.77" text-anchor="middle" font-family="Arial" font-size="11.0" font-weight="600" fill="#3B2918">5</text><rect x="198.88" y="359.00" width="26.52" height="26.52" rx="5.00" fill="#E6B83E" fill-opacity="0.26" stroke="#E6B83E" stroke-width="1"/><text x="212.14" y="376.77" text-anchor="middle" font-family="Arial" font-size="11.0" font-weight="600" fill="#3B2918">5</text><rect x="227.40" y="359.00" width="26.52" height="26.52" rx="5.00" fill="#FFF9EC" fill-opacity="0.45" stroke="#D8B879" stroke-width="1"/><text x="240.66" y="376.77" text-anchor="middle" font-family="Arial" font-size="11.0" font-weight="600" fill="#3B2918">5</text><rect x="255.92" y="359.00" width="26.52" height="26.52" rx="5.00" fill="#FFF9EC" fill-opacity="0.45" stroke="#D8B879" stroke-width="1"/><text x="269.18" y="376.77" text-anchor="middle" font-family="Arial" font-size="11.0" font-weight="600" fill="#3B2918">5</text><rect x="284.44" y="359.00" width="26.52" height="26.52" rx="5.00" fill="#E97872" fill-opacity="0.18" stroke="#E97872" stroke-width="1"/><text x="297.70" y="376.77" text-anchor="middle" font-family="Arial" font-size="11.0" font-weight="600" fill="#3B2918">5</text><rect x="312.96" y="359.00" width="26.52" height="26.52" rx="5.00" fill="#79B95D" fill-opacity="0.3" stroke="#79B95D" stroke-width="2"/><text x="326.22" y="376.77" text-anchor="middle" font-family="Arial" font-size="11.0" font-weight="600" fill="#3B2918">5</text><rect x="341.48" y="359.00" width="26.52" height="26.52" rx="5.00" fill="#FFF9EC" fill-opacity="0.45" stroke="#D8B879" stroke-width="1"/><text x="354.74" y="376.77" text-anchor="middle" font-family="Arial" font-size="11.0" font-weight="600" fill="#3B2918">5</text><rect x="141.84" y="387.52" width="26.52" height="26.52" rx="5.00" fill="#FFF9EC" fill-opacity="0.45" stroke="#D8B879" stroke-width="1"/><text x="155.10" y="405.29" text-anchor="middle" font-family="Arial" font-size="11.0" font-weight="600" fill="#3B2918">6</text><rect x="170.36" y="387.52" width="26.52" height="26.52" rx="5.00" fill="#E97872" fill-opacity="0.18" stroke="#E97872" stroke-width="1"/><text x="183.62" y="405.29" text-anchor="middle" font-family="Arial" font-size="11.0" font-weight="600" fill="#3B2918">6</text><rect x="198.88" y="387.52" width="26.52" height="26.52" rx="5.00" fill="#79B95D" fill-opacity="0.3" stroke="#79B95D" stroke-width="2"/><text x="212.14" y="405.29" text-anchor="middle" font-family="Arial" font-size="11.0" font-weight="600" fill="#3B2918">6</text><rect x="227.40" y="387.52" width="26.52" height="26.52" rx="5.00" fill="#FFF9EC" fill-opacity="0.45" stroke="#D8B879" stroke-width="1"/><text x="240.66" y="405.29" text-anchor="middle" font-family="Arial" font-size="11.0" font-weight="600" fill="#3B2918">6</text><rect x="255.92" y="387.52" width="26.52" height="26.52" rx="5.00" fill="#FFF9EC" fill-opacity="0.45" stroke="#D8B879" stroke-width="1"/><text x="269.18" y="405.29" text-anchor="middle" font-family="Arial" font-size="11.0" font-weight="600" fill="#3B2918">6</text><rect x="284.44" y="387.52" width="26.52" height="26.52" rx="5.00" fill="#E6B83E" fill-opacity="0.26" stroke="#E6B83E" stroke-width="1"/><text x="297.70" y="405.29" text-anchor="middle" font-family="Arial" font-size="11.0" font-weight="600" fill="#3B2918">6</text><rect x="312.96" y="387.52" width="26.52" height="26.52" rx="5.00" fill="#4C9A45" fill-opacity="0.7" stroke="#4C9A45" stroke-width="2"/><text x="326.22" y="405.29" text-anchor="middle" font-family="Arial" font-size="11.0" font-weight="600" fill="white">6</text><rect x="341.48" y="387.52" width="26.52" height="26.52" rx="5.00" fill="#FFF9EC" fill-opacity="0.45" stroke="#D8B879" stroke-width="1"/><text x="354.74" y="405.29" text-anchor="middle" font-family="Arial" font-size="11.0" font-weight="600" fill="#3B2918">6</text><rect x="141.84" y="416.04" width="26.52" height="26.52" rx="5.00" fill="#FFF9EC" fill-opacity="0.45" stroke="#D8B879" stroke-width="1"/><text x="155.10" y="433.81" text-anchor="middle" font-family="Arial" font-size="11.0" font-weight="600" fill="#3B2918">7</text><rect x="170.36" y="416.04" width="26.52" height="26.52" rx="5.00" fill="#E6B83E" fill-opacity="0.26" stroke="#E6B83E" stroke-width="1"/><text x="183.62" y="433.81" text-anchor="middle" font-family="Arial" font-size="11.0" font-weight="600" fill="#3B2918">7</text><rect x="198.88" y="416.04" width="26.52" height="26.52" rx="5.00" fill="#FFF9EC" fill-opacity="0.45" stroke="#D8B879" stroke-width="1"/><text x="212.14" y="433.81" text-anchor="middle" font-family="Arial" font-size="11.0" font-weight="600" fill="#3B2918">7</text><rect x="227.40" y="416.04" width="26.52" height="26.52" rx="5.00" fill="#FFF9EC" fill-opacity="0.45" stroke="#D8B879" stroke-width="1"/><text x="240.66" y="433.81" text-anchor="middle" font-family="Arial" font-size="11.0" font-weight="600" fill="#3B2918">7</text><rect x="255.92" y="416.04" width="26.52" height="26.52" rx="5.00" fill="#E97872" fill-opacity="0.18" stroke="#E97872" stroke-width="1"/><text x="269.18" y="433.81" text-anchor="middle" font-family="Arial" font-size="11.0" font-weight="600" fill="#3B2918">7</text><rect x="284.44" y="416.04" width="26.52" height="26.52" rx="5.00" fill="#79B95D" fill-opacity="0.3" stroke="#79B95D" stroke-width="2"/><text x="297.70" y="433.81" text-anchor="middle" font-family="Arial" font-size="11.0" font-weight="600" fill="#3B2918">7</text><rect x="312.96" y="416.04" width="26.52" height="26.52" rx="5.00" fill="#FFF9EC" fill-opacity="0.45" stroke="#D8B879" stroke-width="1"/><text x="326.22" y="433.81" text-anchor="middle" font-family="Arial" font-size="11.0" font-weight="600" fill="#3B2918">7</text><rect x="341.48" y="416.04" width="26.52" height="26.52" rx="5.00" fill="#FFF9EC" fill-opacity="0.45" stroke="#D8B879" stroke-width="1"/><text x="354.74" y="433.81" text-anchor="middle" font-family="Arial" font-size="11.0" font-weight="600" fill="#3B2918">7</text><rect x="141.84" y="444.56" width="26.52" height="26.52" rx="5.00" fill="#E97872" fill-opacity="0.18" stroke="#E97872" stroke-width="1"/><text x="155.10" y="462.33" text-anchor="middle" font-family="Arial" font-size="11.0" font-weight="600" fill="#3B2918">8</text><rect x="170.36" y="444.56" width="26.52" height="26.52" rx="5.00" fill="#79B95D" fill-opacity="0.3" stroke="#79B95D" stroke-width="2"/><text x="183.62" y="462.33" text-anchor="middle" font-family="Arial" font-size="11.0" font-weight="600" fill="#3B2918">8</text><rect x="198.88" y="444.56" width="26.52" height="26.52" rx="5.00" fill="#FFF9EC" fill-opacity="0.45" stroke="#D8B879" stroke-width="1"/><text x="212.14" y="462.33" text-anchor="middle" font-family="Arial" font-size="11.0" font-weight="600" fill="#3B2918">8</text><rect x="227.40" y="444.56" width="26.52" height="26.52" rx="5.00" fill="#FFF9EC" fill-opacity="0.45" stroke="#D8B879" stroke-width="1"/><text x="240.66" y="462.33" text-anchor="middle" font-family="Arial" font-size="11.0" font-weight="600" fill="#3B2918">8</text><rect x="255.92" y="444.56" width="26.52" height="26.52" rx="5.00" fill="#E6B83E" fill-opacity="0.26" stroke="#E6B83E" stroke-width="1"/><text x="269.18" y="462.33" text-anchor="middle" font-family="Arial" font-size="11.0" font-weight="600" fill="#3B2918">8</text><rect x="284.44" y="444.56" width="26.52" height="26.52" rx="5.00" fill="#4C9A45" fill-opacity="0.7" stroke="#4C9A45" stroke-width="2"/><text x="297.70" y="462.33" text-anchor="middle" font-family="Arial" font-size="11.0" font-weight="600" fill="white">8</text><rect x="312.96" y="444.56" width="26.52" height="26.52" rx="5.00" fill="#FFF9EC" fill-opacity="0.45" stroke="#D8B879" stroke-width="1"/><text x="326.22" y="462.33" text-anchor="middle" font-family="Arial" font-size="11.0" font-weight="600" fill="#3B2918">8</text><rect x="341.48" y="444.56" width="26.52" height="26.52" rx="5.00" fill="#E97872" fill-opacity="0.18" stroke="#E97872" stroke-width="1"/><text x="354.74" y="462.33" text-anchor="middle" font-family="Arial" font-size="11.0" font-weight="600" fill="#3B2918">8</text><rect x="141.84" y="473.08" width="26.52" height="26.52" rx="5.00" fill="#E6B83E" fill-opacity="0.26" stroke="#E6B83E" stroke-width="1"/><text x="155.10" y="490.85" text-anchor="middle" font-family="Arial" font-size="11.0" font-weight="600" fill="#3B2918">9</text><rect x="170.36" y="473.08" width="26.52" height="26.52" rx="5.00" fill="#FFF9EC" fill-opacity="0.45" stroke="#D8B879" stroke-width="1"/><text x="183.62" y="490.85" text-anchor="middle" font-family="Arial" font-size="11.0" font-weight="600" fill="#3B2918">9</text><rect x="198.88" y="473.08" width="26.52" height="26.52" rx="5.00" fill="#FFF9EC" fill-opacity="0.45" stroke="#D8B879" stroke-width="1"/><text x="212.14" y="490.85" text-anchor="middle" font-family="Arial" font-size="11.0" font-weight="600" fill="#3B2918">9</text><rect x="227.40" y="473.08" width="26.52" height="26.52" rx="5.00" fill="#E97872" fill-opacity="0.18" stroke="#E97872" stroke-width="1"/><text x="240.66" y="490.85" text-anchor="middle" font-family="Arial" font-size="11.0" font-weight="600" fill="#3B2918">9</text><rect x="255.92" y="473.08" width="26.52" height="26.52" rx="5.00" fill="#79B95D" fill-opacity="0.3" stroke="#79B95D" stroke-width="2"/><text x="269.18" y="490.85" text-anchor="middle" font-family="Arial" font-size="11.0" font-weight="600" fill="#3B2918">9</text><rect x="284.44" y="473.08" width="26.52" height="26.52" rx="5.00" fill="#FFF9EC" fill-opacity="0.45" stroke="#D8B879" stroke-width="1"/><text x="297.70" y="490.85" text-anchor="middle" font-family="Arial" font-size="11.0" font-weight="600" fill="#3B2918">9</text><rect x="312.96" y="473.08" width="26.52" height="26.52" rx="5.00" fill="#FFF9EC" fill-opacity="0.45" stroke="#D8B879" stroke-width="1"/><text x="326.22" y="490.85" text-anchor="middle" font-family="Arial" font-size="11.0" font-weight="600" fill="#3B2918">9</text><rect x="341.48" y="473.08" width="26.52" height="26.52" rx="5.00" fill="#E6B83E" fill-opacity="0.26" stroke="#E6B83E" stroke-width="1"/><text x="354.74" y="490.85" text-anchor="middle" font-family="Arial" font-size="11.0" font-weight="600" fill="#3B2918">9</text><rect x="12" y="544" width="366" height="42" rx="14" fill="url(#panel)" stroke="#D8B879"/><text x="48.6" y="570" text-anchor="middle" font-family="Arial" font-size="11" fill="#3B2918">H1 0</text><text x="121.8" y="570" text-anchor="middle" font-family="Arial" font-size="11" fill="#3B2918">H2 0</text><text x="195.0" y="570" text-anchor="middle" font-family="Arial" font-size="11" fill="#3B2918">H3 0</text><text x="268.2" y="570" text-anchor="middle" font-family="Arial" font-size="11" fill="#3B2918">+3</text><text x="341.4" y="570" text-anchor="middle" font-family="Arial" font-size="11" fill="#3B2918">+2:00</text><rect x="12" y="594" width="366" height="38" rx="13" fill="url(#panel)" stroke="#D8B879"/><rect x="16.0" y="598" width="87.5" height="30" rx="9" fill="#E97872" fill-opacity=".56" stroke="#E97872"/><text x="59.75" y="619" text-anchor="middle" font-family="Arial" font-size="11" font-weight="700" fill="#3B2918">Нет</text><rect x="105.5" y="598" width="87.5" height="30" rx="9" fill="#E6B83E" fill-opacity=".56" stroke="#E6B83E"/><text x="149.25" y="619" text-anchor="middle" font-family="Arial" font-size="11" font-weight="700" fill="#3B2918">Возм</text><rect x="195.0" y="598" width="87.5" height="30" rx="9" fill="#79B95D" fill-opacity=".56" stroke="#79B95D"/><text x="238.75" y="619" text-anchor="middle" font-family="Arial" font-size="11" font-weight="700" fill="#3B2918">Точн</text><rect x="284.5" y="598" width="87.5" height="30" rx="9" fill="#AEBEC9" fill-opacity=".56" stroke="#AEBEC9"/><text x="328.25" y="619" text-anchor="middle" font-family="Arial" font-size="11" font-weight="700" fill="#3B2918">PRO</text><rect x="12" y="640" width="366" height="132" rx="16" fill="url(#panel)" stroke="#D8B879" filter="url(#shadow)"/><text x="22" y="661" font-family="Arial" font-size="13" font-weight="700" fill="#3B2918">Комбинация</text><rect x="22.00" y="670" width="40.62" height="30" rx="7" fill="#FFF9EC" fill-opacity=".55" stroke="#D8B879"/><rect x="65.62" y="670" width="40.62" height="30" rx="7" fill="#FFF9EC" fill-opacity=".55" stroke="#D8B879"/><rect x="109.25" y="670" width="40.62" height="30" rx="7" fill="#FFF9EC" fill-opacity=".55" stroke="#D8B879"/><rect x="152.88" y="670" width="40.62" height="30" rx="7" fill="#FFF9EC" fill-opacity=".55" stroke="#D8B879"/><rect x="196.50" y="670" width="40.62" height="30" rx="7" fill="#FFF9EC" fill-opacity=".55" stroke="#D8B879"/><rect x="240.12" y="670" width="40.62" height="30" rx="7" fill="#FFF9EC" fill-opacity=".55" stroke="#D8B879"/><rect x="283.75" y="670" width="40.62" height="30" rx="7" fill="#FFF9EC" fill-opacity=".55" stroke="#D8B879"/><rect x="327.38" y="670" width="40.62" height="30" rx="7" fill="#FFF9EC" fill-opacity=".55" stroke="#D8B879"/><rect x="22.00" y="707" width="28.73" height="28" rx="6" fill="#FFF9EC" fill-opacity=".68" stroke="#D8B879"/><text x="36.36" y="726" text-anchor="middle" font-family="Arial" font-size="10" font-weight="700" fill="#3B2918">1</text><rect x="53.73" y="707" width="28.73" height="28" rx="6" fill="#FFF9EC" fill-opacity=".68" stroke="#D8B879"/><text x="68.09" y="726" text-anchor="middle" font-family="Arial" font-size="10" font-weight="700" fill="#3B2918">2</text><rect x="85.45" y="707" width="28.73" height="28" rx="6" fill="#FFF9EC" fill-opacity=".68" stroke="#D8B879"/><text x="99.82" y="726" text-anchor="middle" font-family="Arial" font-size="10" font-weight="700" fill="#3B2918">3</text><rect x="117.18" y="707" width="28.73" height="28" rx="6" fill="#FFF9EC" fill-opacity=".68" stroke="#D8B879"/><text x="131.55" y="726" text-anchor="middle" font-family="Arial" font-size="10" font-weight="700" fill="#3B2918">4</text><rect x="148.91" y="707" width="28.73" height="28" rx="6" fill="#FFF9EC" fill-opacity=".68" stroke="#D8B879"/><text x="163.27" y="726" text-anchor="middle" font-family="Arial" font-size="10" font-weight="700" fill="#3B2918">5</text><rect x="180.64" y="707" width="28.73" height="28" rx="6" fill="#FFF9EC" fill-opacity=".68" stroke="#D8B879"/><text x="195.00" y="726" text-anchor="middle" font-family="Arial" font-size="10" font-weight="700" fill="#3B2918">6</text><rect x="212.36" y="707" width="28.73" height="28" rx="6" fill="#FFF9EC" fill-opacity=".68" stroke="#D8B879"/><text x="226.73" y="726" text-anchor="middle" font-family="Arial" font-size="10" font-weight="700" fill="#3B2918">7</text><rect x="244.09" y="707" width="28.73" height="28" rx="6" fill="#FFF9EC" fill-opacity=".68" stroke="#D8B879"/><text x="258.45" y="726" text-anchor="middle" font-family="Arial" font-size="10" font-weight="700" fill="#3B2918">8</text><rect x="275.82" y="707" width="28.73" height="28" rx="6" fill="#FFF9EC" fill-opacity=".68" stroke="#D8B879"/><text x="290.18" y="726" text-anchor="middle" font-family="Arial" font-size="10" font-weight="700" fill="#3B2918">9</text><rect x="307.55" y="707" width="28.73" height="28" rx="6" fill="#FFF9EC" fill-opacity=".68" stroke="#D8B879"/><text x="321.91" y="726" text-anchor="middle" font-family="Arial" font-size="10" font-weight="700" fill="#3B2918">0</text><rect x="339.27" y="707" width="28.73" height="28" rx="6" fill="#FFF9EC" fill-opacity=".68" stroke="#D8B879"/><text x="353.64" y="726" text-anchor="middle" font-family="Arial" font-size="10" font-weight="700" fill="#3B2918">DEL</text><rect x="22" y="741" width="139.08" height="25" rx="8" fill="#FFF4DE" stroke="#D8B879"/><text x="91.54" y="758" text-anchor="middle" font-family="Arial" font-size="11" font-weight="700" fill="#3B2918">Сброс</text><rect x="169.08" y="741" width="198.92" height="25" rx="8" fill="url(#primary)" stroke="#72B7EA"/><text x="268.54" y="758" text-anchor="middle" font-family="Arial" font-size="11" font-weight="700" fill="white">Подтвердить</text><rect x="12" y="780" width="366" height="44" rx="13" fill="#FFF9EC" stroke="#D8B879"/><rect x="18" y="786" width="42" height="32" rx="8" fill="#F1A63A"/><text x="39" y="807" text-anchor="middle" font-family="Arial" font-size="12" font-weight="700" fill="white">AD</text><text x="70" y="807" font-family="Arial" font-size="10" fill="#3B2918">production banner content — без фиолетовой рамки</text><text x="195" y="839" text-anchor="middle" font-family="Arial" font-size="10" fill="#FFF9EC">8 digits · attempts 32% / matrix 68%</text></svg>